<mxfile host="app.diagrams.net" agent="Mozilla/5.0 (Windows NT 10.0; Win64; x64) AppleWebKit/537.36 (KHTML, like Gecko) Chrome/134.0.0.0 Safari/537.36" version="26.1.1">
  <diagram name="Page-1" id="p5Uf2oY6DKgB3Cy2aM9s">
    <mxGraphModel dx="2035" dy="1063" grid="1" gridSize="10" guides="1" tooltips="1" connect="1" arrows="1" fold="1" page="1" pageScale="1" pageWidth="850" pageHeight="1100" math="0" shadow="0">
      <root>
        <mxCell id="0" />
        <mxCell id="1" parent="0" />
        <mxCell id="-ZZGmdMcY_lkfu7EaSfP-19" style="edgeStyle=orthogonalEdgeStyle;rounded=0;orthogonalLoop=1;jettySize=auto;html=1;entryX=0.5;entryY=0;entryDx=0;entryDy=0;" edge="1" parent="1" source="-ZZGmdMcY_lkfu7EaSfP-1" target="-ZZGmdMcY_lkfu7EaSfP-3">
          <mxGeometry relative="1" as="geometry" />
        </mxCell>
        <mxCell id="-ZZGmdMcY_lkfu7EaSfP-1" value="" style="ellipse;whiteSpace=wrap;html=1;aspect=fixed;" vertex="1" parent="1">
          <mxGeometry x="225" y="130" width="80" height="80" as="geometry" />
        </mxCell>
        <mxCell id="-ZZGmdMcY_lkfu7EaSfP-5" style="edgeStyle=orthogonalEdgeStyle;rounded=0;orthogonalLoop=1;jettySize=auto;html=1;exitX=0.5;exitY=1;exitDx=0;exitDy=0;entryX=0.5;entryY=0;entryDx=0;entryDy=0;" edge="1" parent="1" source="-ZZGmdMcY_lkfu7EaSfP-2" target="-ZZGmdMcY_lkfu7EaSfP-10">
          <mxGeometry relative="1" as="geometry">
            <mxPoint x="270" y="620" as="targetPoint" />
          </mxGeometry>
        </mxCell>
        <mxCell id="-ZZGmdMcY_lkfu7EaSfP-2" value="" style="shape=image;verticalLabelPosition=bottom;labelBackgroundColor=default;verticalAlign=top;aspect=fixed;imageAspect=0;image=https://www.svgrepo.com/show/354468/twilio.svg;" vertex="1" parent="1">
          <mxGeometry x="180" y="380" width="170" height="170" as="geometry" />
        </mxCell>
        <mxCell id="-ZZGmdMcY_lkfu7EaSfP-4" style="edgeStyle=orthogonalEdgeStyle;rounded=0;orthogonalLoop=1;jettySize=auto;html=1;exitX=0.5;exitY=1;exitDx=0;exitDy=0;" edge="1" parent="1" source="-ZZGmdMcY_lkfu7EaSfP-3" target="-ZZGmdMcY_lkfu7EaSfP-2">
          <mxGeometry relative="1" as="geometry" />
        </mxCell>
        <mxCell id="-ZZGmdMcY_lkfu7EaSfP-7" style="edgeStyle=orthogonalEdgeStyle;rounded=0;orthogonalLoop=1;jettySize=auto;html=1;exitX=1;exitY=0.5;exitDx=0;exitDy=0;entryX=-0.021;entryY=0.544;entryDx=0;entryDy=0;entryPerimeter=0;" edge="1" parent="1" source="-ZZGmdMcY_lkfu7EaSfP-3" target="-ZZGmdMcY_lkfu7EaSfP-9">
          <mxGeometry relative="1" as="geometry">
            <mxPoint x="520" y="320" as="targetPoint" />
          </mxGeometry>
        </mxCell>
        <mxCell id="-ZZGmdMcY_lkfu7EaSfP-3" value="if twilio Service is available" style="rhombus;whiteSpace=wrap;html=1;" vertex="1" parent="1">
          <mxGeometry x="165" y="295" width="200" height="50" as="geometry" />
        </mxCell>
        <mxCell id="-ZZGmdMcY_lkfu7EaSfP-8" style="edgeStyle=orthogonalEdgeStyle;rounded=0;orthogonalLoop=1;jettySize=auto;html=1;exitX=0.5;exitY=0;exitDx=0;exitDy=0;exitPerimeter=0;entryX=1;entryY=0.5;entryDx=0;entryDy=0;" edge="1" parent="1" source="-ZZGmdMcY_lkfu7EaSfP-9" target="-ZZGmdMcY_lkfu7EaSfP-1">
          <mxGeometry relative="1" as="geometry">
            <mxPoint x="610" y="270" as="sourcePoint" />
          </mxGeometry>
        </mxCell>
        <mxCell id="-ZZGmdMcY_lkfu7EaSfP-9" value="through error message and hand the call back to the Agent with appropriate prompt" style="shape=callout;whiteSpace=wrap;html=1;perimeter=calloutPerimeter;size=35;position=0.17;position2=0.17;base=10;" vertex="1" parent="1">
          <mxGeometry x="560" y="257" width="120" height="115" as="geometry" />
        </mxCell>
        <mxCell id="-ZZGmdMcY_lkfu7EaSfP-14" style="edgeStyle=orthogonalEdgeStyle;rounded=0;orthogonalLoop=1;jettySize=auto;html=1;" edge="1" parent="1" source="-ZZGmdMcY_lkfu7EaSfP-10">
          <mxGeometry relative="1" as="geometry">
            <mxPoint x="266" y="830" as="targetPoint" />
          </mxGeometry>
        </mxCell>
        <mxCell id="-ZZGmdMcY_lkfu7EaSfP-10" value="check if API is Available" style="rhombus;whiteSpace=wrap;html=1;" vertex="1" parent="1">
          <mxGeometry x="166" y="660" width="200" height="50" as="geometry" />
        </mxCell>
        <mxCell id="-ZZGmdMcY_lkfu7EaSfP-13" style="edgeStyle=orthogonalEdgeStyle;rounded=0;orthogonalLoop=1;jettySize=auto;html=1;exitX=0.5;exitY=0;exitDx=0;exitDy=0;exitPerimeter=0;entryX=1;entryY=0.5;entryDx=0;entryDy=0;" edge="1" parent="1" source="-ZZGmdMcY_lkfu7EaSfP-11" target="-ZZGmdMcY_lkfu7EaSfP-1">
          <mxGeometry relative="1" as="geometry" />
        </mxCell>
        <mxCell id="-ZZGmdMcY_lkfu7EaSfP-11" value="&#xa;&lt;span style=&quot;color: rgb(0, 0, 0); font-family: Helvetica; font-size: 12px; font-style: normal; font-variant-ligatures: normal; font-variant-caps: normal; font-weight: 400; letter-spacing: normal; orphans: 2; text-align: center; text-indent: 0px; text-transform: none; widows: 2; word-spacing: 0px; -webkit-text-stroke-width: 0px; white-space: normal; background-color: rgb(251, 251, 251); text-decoration-thickness: initial; text-decoration-style: initial; text-decoration-color: initial; display: inline !important; float: none;&quot;&gt;through error message and hand the call back to the Agent with appropriate prompt&lt;/span&gt;&#xa;&#xa;" style="shape=callout;whiteSpace=wrap;html=1;perimeter=calloutPerimeter;size=35;position=0.17;position2=0.17;base=10;" vertex="1" parent="1">
          <mxGeometry x="720" y="636" width="120" height="115" as="geometry" />
        </mxCell>
        <mxCell id="-ZZGmdMcY_lkfu7EaSfP-12" style="edgeStyle=orthogonalEdgeStyle;rounded=0;orthogonalLoop=1;jettySize=auto;html=1;exitX=1;exitY=0.5;exitDx=0;exitDy=0;entryX=-0.018;entryY=0.422;entryDx=0;entryDy=0;entryPerimeter=0;" edge="1" parent="1" source="-ZZGmdMcY_lkfu7EaSfP-10" target="-ZZGmdMcY_lkfu7EaSfP-11">
          <mxGeometry relative="1" as="geometry" />
        </mxCell>
        <mxCell id="-ZZGmdMcY_lkfu7EaSfP-18" style="edgeStyle=orthogonalEdgeStyle;rounded=0;orthogonalLoop=1;jettySize=auto;html=1;exitX=0.5;exitY=1;exitDx=0;exitDy=0;entryX=0.5;entryY=0;entryDx=0;entryDy=0;" edge="1" parent="1" source="-ZZGmdMcY_lkfu7EaSfP-15" target="-ZZGmdMcY_lkfu7EaSfP-16">
          <mxGeometry relative="1" as="geometry" />
        </mxCell>
        <mxCell id="-ZZGmdMcY_lkfu7EaSfP-15" value="API will Fetch the Data" style="rounded=0;whiteSpace=wrap;html=1;" vertex="1" parent="1">
          <mxGeometry x="206" y="870" width="120" height="60" as="geometry" />
        </mxCell>
        <mxCell id="-ZZGmdMcY_lkfu7EaSfP-25" style="edgeStyle=orthogonalEdgeStyle;rounded=0;orthogonalLoop=1;jettySize=auto;html=1;exitX=0.5;exitY=1;exitDx=0;exitDy=0;entryX=0.5;entryY=0;entryDx=0;entryDy=0;" edge="1" parent="1" source="-ZZGmdMcY_lkfu7EaSfP-16" target="-ZZGmdMcY_lkfu7EaSfP-23">
          <mxGeometry relative="1" as="geometry" />
        </mxCell>
        <mxCell id="-ZZGmdMcY_lkfu7EaSfP-16" value="For Any Issue in API&amp;nbsp;" style="rhombus;whiteSpace=wrap;html=1;" vertex="1" parent="1">
          <mxGeometry x="166" y="1060" width="200" height="50" as="geometry" />
        </mxCell>
        <mxCell id="-ZZGmdMcY_lkfu7EaSfP-22" style="edgeStyle=orthogonalEdgeStyle;rounded=0;orthogonalLoop=1;jettySize=auto;html=1;exitX=0.5;exitY=0;exitDx=0;exitDy=0;exitPerimeter=0;entryX=1;entryY=0.5;entryDx=0;entryDy=0;" edge="1" parent="1" source="-ZZGmdMcY_lkfu7EaSfP-20" target="-ZZGmdMcY_lkfu7EaSfP-1">
          <mxGeometry relative="1" as="geometry" />
        </mxCell>
        <mxCell id="-ZZGmdMcY_lkfu7EaSfP-20" value="through error message and hand the call back to the Agent with appropriate prompt" style="shape=callout;whiteSpace=wrap;html=1;perimeter=calloutPerimeter;size=35;position=0.17;position2=0.17;base=10;" vertex="1" parent="1">
          <mxGeometry x="891" y="1027.5" width="120" height="115" as="geometry" />
        </mxCell>
        <mxCell id="-ZZGmdMcY_lkfu7EaSfP-21" style="edgeStyle=orthogonalEdgeStyle;rounded=0;orthogonalLoop=1;jettySize=auto;html=1;exitX=1;exitY=0.5;exitDx=0;exitDy=0;entryX=0;entryY=0.504;entryDx=0;entryDy=0;entryPerimeter=0;" edge="1" parent="1" source="-ZZGmdMcY_lkfu7EaSfP-16" target="-ZZGmdMcY_lkfu7EaSfP-20">
          <mxGeometry relative="1" as="geometry" />
        </mxCell>
        <mxCell id="-ZZGmdMcY_lkfu7EaSfP-26" style="edgeStyle=orthogonalEdgeStyle;rounded=0;orthogonalLoop=1;jettySize=auto;html=1;exitX=0.5;exitY=1;exitDx=0;exitDy=0;" edge="1" parent="1" source="-ZZGmdMcY_lkfu7EaSfP-23" target="-ZZGmdMcY_lkfu7EaSfP-24">
          <mxGeometry relative="1" as="geometry" />
        </mxCell>
        <mxCell id="-ZZGmdMcY_lkfu7EaSfP-23" value="Find the Agent Chrome browser and populate the fields" style="rounded=0;whiteSpace=wrap;html=1;" vertex="1" parent="1">
          <mxGeometry x="206" y="1230" width="120" height="60" as="geometry" />
        </mxCell>
        <mxCell id="-ZZGmdMcY_lkfu7EaSfP-24" value="" style="ellipse;whiteSpace=wrap;html=1;aspect=fixed;" vertex="1" parent="1">
          <mxGeometry x="226" y="1440" width="80" height="80" as="geometry" />
        </mxCell>
        <mxCell id="-ZZGmdMcY_lkfu7EaSfP-27" value="Here we need to train agents that they must have chrome browser open oitherwise we need to add check here as well" style="text;html=1;align=center;verticalAlign=middle;resizable=0;points=[];autosize=1;strokeColor=none;fillColor=none;" vertex="1" parent="1">
          <mxGeometry x="400" y="1245" width="650" height="30" as="geometry" />
        </mxCell>
        <mxCell id="-ZZGmdMcY_lkfu7EaSfP-28" value="&lt;font style=&quot;font-size: 22px;&quot;&gt;Payment FLow&lt;/font&gt;" style="text;html=1;align=center;verticalAlign=middle;resizable=0;points=[];autosize=1;strokeColor=none;fillColor=none;" vertex="1" parent="1">
          <mxGeometry x="171" y="25" width="170" height="40" as="geometry" />
        </mxCell>
      </root>
    </mxGraphModel>
  </diagram>
</mxfile>
